<svg xmlns="http://www.w3.org/2000/svg" width="90" height="35" fill="none" viewBox="0 0 90 35">
    <path fill="#fff" fill-opacity=".6" d="M51.059 11.191c1.78 0 3.171.403 4.174 1.208 1.02.788 1.53 1.873 1.53 3.255 0 1.383-.51 2.476-1.53 3.281-1.003.788-2.394 1.181-4.174 1.181-1.78 0-3.18-.393-4.2-1.18-1.002-.806-1.503-1.9-1.503-3.282 0-1.383.501-2.467 1.503-3.255 1.02-.805 2.42-1.207 4.2-1.207zm-5.988-1.102c-.398 0-.691-.14-.882-.42-.19-.28-.285-.612-.285-.997s.095-.718.285-.998c.19-.28.484-.42.882-.42H49.4V5.968c0-.49.164-.849.492-1.076.346-.228.735-.342 1.167-.342.432 0 .812.114 1.14.342.346.227.52.586.52 1.076v1.286h4.069c.398 0 .691.14.881.42.19.28.286.613.286.998s-.096.717-.286.997c-.19.28-.483.42-.881.42H45.071zm5.988 7.455c.933 0 1.616-.175 2.048-.525.45-.367.674-.822.674-1.365s-.225-.989-.674-1.339c-.432-.367-1.115-.551-2.048-.551s-1.624.184-2.074.551c-.432.35-.648.796-.648 1.339 0 .543.216.997.648 1.365.45.35 1.14.525 2.074.525zm11.717-6.09h2.463c.397 0 .691.14.881.42.19.28.285.621.285 1.024 0 .402-.095.744-.285 1.024-.19.28-.484.42-.881.42h-2.463v7.008c0 .49-.173.849-.518 1.076-.329.228-.7.342-1.115.342-.432 0-.82-.114-1.166-.341-.329-.228-.493-.587-.493-1.077V6.02c0-.49.164-.848.492-1.076.346-.227.735-.341 1.167-.341.415 0 .786.114 1.115.341.345.228.518.586.518 1.076v5.434zM49.633 28.753c-.83 0-1.408-.158-1.737-.473-.31-.315-.466-.884-.466-1.706V22.61c0-.49.164-.848.492-1.076.346-.227.744-.341 1.193-.341.432 0 .812.113 1.14.341.346.228.519.586.519 1.076v2.678c0 .402.199.604.596.604h10.81c.398 0 .691.14.881.42.19.28.285.62.285 1.023 0 .385-.094.718-.285.998-.19.28-.483.42-.881.42H49.633zM69.52 8.803c-.397 0-.691-.14-.881-.42-.19-.28-.285-.613-.285-.998 0-.402.095-.743.285-1.023.19-.28.484-.42.881-.42h7.751c.83 0 1.4.157 1.711.472.329.315.493.884.493 1.706v1.995c0 .928-.121 1.724-.363 2.389-.225.665-.674 1.304-1.348 1.916-.674.613-1.616 1.252-2.826 1.917-1.192.665-2.756 1.46-4.692 2.388-.415.193-.803.193-1.166 0-.363-.192-.623-.463-.778-.814-.087-.157-.147-.332-.182-.524-.017-.193-.008-.377.026-.552.035-.192.104-.367.208-.525.12-.157.293-.288.518-.393 1.728-.806 3.076-1.47 4.044-1.995.985-.543 1.72-1.016 2.204-1.418.483-.402.777-.787.881-1.155.12-.385.181-.831.181-1.339v-.603c0-.403-.198-.604-.596-.604H69.52zm19.287 1.443c.415 0 .717.14.907.42.19.28.285.622.285 1.024 0 .403-.095.753-.285 1.05-.19.28-.492.42-.907.42H86.37v4.489c0 .49-.173.849-.518 1.076-.329.228-.709.341-1.14.341-.433 0-.822-.113-1.168-.34-.328-.228-.492-.587-.492-1.077V6.02c0-.49.164-.848.492-1.076.346-.227.735-.341 1.167-.341.432 0 .812.114 1.14.341.346.228.52.586.52 1.076v4.226h2.436zm-17.654 14.07c0-1.697.674-2.966 2.022-3.806 1.366-.857 3.24-1.286 5.626-1.286 2.385 0 4.251.429 5.599 1.286 1.365.84 2.048 2.109 2.048 3.806 0 1.716-.683 2.993-2.048 3.833-1.348.84-3.214 1.26-5.6 1.26-2.384 0-4.26-.42-5.625-1.26-1.348-.84-2.022-2.117-2.022-3.832zm12.003 0c0-.717-.337-1.294-1.011-1.732-.657-.455-1.772-.683-3.344-.683-.795 0-1.47.062-2.022.184-.553.105-1.003.263-1.348.473-.346.21-.597.463-.752.761-.156.297-.233.63-.233.998 0 .367.077.7.233.997.155.297.406.551.752.761.345.21.795.368 1.348.473.553.122 1.227.184 2.022.184 1.572 0 2.687-.228 3.344-.683.674-.438 1.01-1.015 1.01-1.732z"/>
    <path fill="#fff" fill-opacity=".6" fill-rule="evenodd" d="M22.054 32.5c4.781 0 8.658-3.925 8.658-8.767s-3.877-8.768-8.658-8.768c-4.782 0-8.658 3.926-8.658 8.768 0 4.842 3.876 8.767 8.658 8.767zm0-5.845c1.595 0 2.887-1.309 2.887-2.923s-1.292-2.922-2.886-2.922-2.886 1.308-2.886 2.922 1.292 2.923 2.886 2.923zM24.86 3.962c-.797-1.398-2.57-1.873-3.958-1.06l-9.723 5.684-2.098-3.681c-.792-1.389-2.553-1.86-3.934-1.054-1.38.807-1.857 2.587-1.065 3.976l3.505 6.149.036.063c.024.044.05.087.077.129.821 1.301 2.524 1.726 3.866.941l.06-.036 12.162-7.11c1.389-.812 1.869-2.603 1.072-4.001z" clip-rule="evenodd"/>
</svg>
