<svg xmlns="http://www.w3.org/2000/svg" width="100%" height="100%" fill="none" viewBox="0 0 80 31">
    <path fill="current" d="M45.386 9.912c1.582 0 2.819.356 3.71 1.069.906.697 1.36 1.659 1.36 2.883s-.454 2.193-1.36 2.906c-.891.698-2.128 1.047-3.71 1.047-1.582 0-2.826-.35-3.733-1.047-.89-.713-1.336-1.681-1.336-2.906s.445-2.186 1.336-2.883c.907-.713 2.15-1.07 3.733-1.07zm-5.323-.977c-.353 0-.614-.124-.783-.372-.17-.248-.254-.542-.254-.883 0-.341.085-.636.254-.884.169-.248.43-.372.783-.372h3.848v-1.14c0-.433.146-.75.438-.952.307-.202.653-.303 1.037-.303.384 0 .722.101 1.014.303.307.201.46.519.46.953v1.14h3.618c.354 0 .615.123.784.371.169.248.254.543.254.884 0 .34-.085.635-.254.883-.169.248-.43.372-.784.372H40.063zm5.323 6.603c.83 0 1.436-.155 1.82-.465.4-.325.6-.729.6-1.209 0-.48-.2-.876-.6-1.186-.384-.325-.99-.488-1.82-.488-.83 0-1.444.163-1.843.488-.384.31-.576.705-.576 1.186 0 .48.192.883.576 1.209.4.31 1.014.465 1.843.465zm10.415-5.394h2.19c.353 0 .614.124.783.372.169.248.253.55.253.907 0 .356-.084.659-.253.906-.17.248-.43.372-.784.372h-2.189v6.208c0 .434-.153.752-.46.954-.292.201-.623.302-.991.302-.384 0-.73-.101-1.037-.302-.292-.202-.438-.52-.438-.954V5.331c0-.434.146-.751.438-.953.307-.201.653-.302 1.037-.302.368 0 .699.1.99.302.308.202.461.52.461.953v4.813zM44.12 25.466c-.738 0-1.252-.14-1.544-.419-.277-.279-.415-.782-.415-1.511v-3.51c0-.435.146-.753.438-.954.307-.201.66-.302 1.06-.302.384 0 .722.1 1.014.302.307.201.46.52.46.953v2.372c0 .356.177.535.53.535h9.61c.353 0 .614.123.783.372.169.248.253.55.253.906 0 .341-.084.636-.253.884-.17.248-.43.372-.784.372H44.12zM61.796 7.796c-.353 0-.614-.124-.783-.372-.17-.248-.254-.543-.254-.884 0-.356.085-.658.254-.906.169-.248.43-.372.783-.372h6.89c.737 0 1.244.14 1.52.418.293.28.438.783.438 1.511v1.767c0 .822-.107 1.527-.322 2.116-.2.589-.6 1.155-1.198 1.697-.6.543-1.437 1.108-2.512 1.697-1.06.59-2.45 1.295-4.17 2.116-.37.17-.715.17-1.038 0-.322-.17-.553-.41-.69-.72-.078-.14-.131-.295-.162-.466-.016-.17-.008-.333.023-.488.03-.17.092-.325.184-.465.108-.14.261-.255.461-.348 1.536-.713 2.734-1.303 3.595-1.768.875-.48 1.528-.899 1.958-1.255.43-.357.692-.697.784-1.023.107-.34.161-.736.161-1.186v-.534c0-.357-.177-.535-.53-.535h-5.392zM78.94 9.075c.368 0 .637.124.806.372.17.248.254.55.254.906 0 .357-.085.667-.254.93-.169.248-.438.372-.806.372h-2.166v3.976c0 .434-.154.752-.461.953-.292.202-.63.303-1.014.303s-.73-.101-1.037-.303c-.292-.201-.438-.519-.438-.953v-10.3c0-.434.146-.751.438-.953.307-.201.653-.302 1.037-.302.384 0 .722.1 1.014.302.307.202.46.52.46.953v3.744h2.167zM63.248 21.537c0-1.504.599-2.628 1.797-3.372 1.214-.76 2.88-1.139 5-1.139s3.78.38 4.977 1.14c1.214.743 1.82 1.867 1.82 3.37 0 1.52-.606 2.651-1.82 3.395-1.198.744-2.857 1.116-4.977 1.116s-3.786-.372-5-1.116c-1.198-.744-1.797-1.876-1.797-3.395zm10.669 0c0-.636-.3-1.147-.9-1.535-.583-.403-1.574-.604-2.972-.604-.706 0-1.305.054-1.797.162-.492.093-.891.233-1.198.419-.307.186-.53.41-.668.674-.139.264-.208.558-.208.884 0 .325.07.62.207.883.139.263.362.488.669.674.307.186.706.326 1.198.419.492.108 1.09.162 1.797.162 1.398 0 2.39-.201 2.973-.604.599-.388.898-.899.898-1.535z"/>
    <path fill="current" fill-rule="evenodd" d="M19.603 28.787c4.25 0 7.696-3.477 7.696-7.766 0-4.288-3.445-7.765-7.696-7.765-4.25 0-7.696 3.477-7.696 7.765 0 4.289 3.446 7.766 7.696 7.766zm.001-5.178c1.417 0 2.566-1.159 2.566-2.588 0-1.43-1.149-2.588-2.566-2.588-1.417 0-2.565 1.158-2.565 2.588 0 1.43 1.148 2.588 2.565 2.588zM22.098 3.509c-.709-1.238-2.282-1.66-3.515-.942L9.937 7.604 8.074 4.348c-.706-1.233-2.272-1.652-3.499-.938-1.227.715-1.65 2.294-.945 3.526l3.118 5.448.028.05c.024.042.048.083.074.123.734 1.145 2.242 1.518 3.43.825l.05-.03L21.148 7.05c1.233-.718 1.658-2.303.95-3.541z" clip-rule="evenodd"/>
</svg>
