<svg xmlns="http://www.w3.org/2000/svg" width="445" height="289" fill="current" viewBox="0 0 445 289">
    <mask id="3s6sqwfnja" width="445" height="289" x="0" y="0" maskUnits="userSpaceOnUse">
        <path fill="#C4C4C4" d="M0 0H445V289H0z"/>
    </mask>
    <g mask="url(#3s6sqwfnja)">
        <path fill="#FDD4BC" d="M249.802 102.689c1.166.5 2.77 3.516 0 5.008-.764-.347-1.864.988-1.864 3.987s12.363.248 17.431-.655c.278-.694-2.671-2.937-3.671-4.27-.999-1.333.193-5.367 1.026-6.894-4.582.417-14.088 2.324-12.922 2.824z"/>
        <path fill="#DDE8F3" d="M90.538 81.981c-56.163 51.257-52.074 90.394-28.652 137.933 18.269 37.083 141.134 9.867 194.572 51.308 53.437 41.442 67.661-35.369 87.291-74.63 19.63-39.26 161.549-16.248 161.549-63.193 0-24.114 25.335-42.6-10.264-61.76-19.039-10.247-45.436-6.334-101.426-36.374-88.012-47.222-135.57 9.76-164.47 29.391-28.9 19.63-82.436-33.931-138.6 17.325z"/>
        <path fill="#F8CEB6" d="M250.06 107.566c.8-.8.607-3.557.44-4.724 3.667-1 11.1-3 11.5-3 .5 0 1 3 1 4 0 .8 1.333 4.667 2 6.5l-12.5 1c-1.166-1-3.24-2.976-2.44-3.776z"/>
        <path fill="#238BFE" d="M57.799 155.708c17.191 23.037 22.693 38.509 34.383 45.73 34.383 26.471 135.904 58.605 171.353 65.104 35.449 6.499 68.535-11.225 93.349-18.315 24.814-7.09 118.141-38.629 139.873 32.748 16.763 55.06-36.242 24.389-82.533 44.649-46.399 20.307-124.693-14.77-176.685-24.814-51.991-10.044-102.802 23.632-140.614 24.814-37.812 1.182-80.787-54.37-65.798-85.092 14.99-30.722-21.464-24.31-20.089-52.16 1.375-27.85 29.57-55.7 46.761-32.664z"/>
        <path fill="#124A88" d="M292.254 170.285c2.88-.821 9.185-2.11 9.11-6.046-.047-4.27-4.175-4.696-8.599-4.81-4.425-.114-11.376 1.817-11.855 1.834-.478.018-2.667 3.133-1.366 5.035 1.301 1.902-1.875 2.619.495 4.592 3.051 2.541 5.388 1.341 12.215-.605z"/>
        <path fill="#7BB9FF" d="M371.46 228.3c-39.622 11.18-55.48 11.02-63.502 0-7.575 0-13.814 3.879-15.151 6.072-1.337 2.193-12.477 15.012 6.462 23.783s72.004-1.014 141.696 28.808c39.958 17.099 63.656 10.585 55.117-28.808-2.763-12.747-34.122-31.65-34.122-47.172 0-33.645 27.485-60.182 5.686-79.611-9.391-8.371-12.867 23.276-26.681 9.951-13.815-13.325 23.587-20.877-6.454-43.13C408.694 79.07 354.4 84.937 354.4 120.446c0 58.254 83.833 89.012 17.06 107.854z"/>
        <path fill="#FFAB2E" d="M149.174 176.973c4.957-6.821 14.078-21.675 17.717-16.032l3.99-23.433c-5.904-2.519-58.712 28.892-59.425 32.31-.714 3.419 25.217 21.183 26.025 20.597.809-.586 6.735-6.621 11.693-13.442z"/>
        <path fill="#9C681B" d="M123.143 173.719c-4.976-5.207-10.135-6.572-12.425-3.447-3.648 5.858 9.461 11.924 13.969 15.266 4.508 3.343 12.281 6.659 13.249 4.391.968-2.269-4.424-4.832-7.142-7.884-2.717-3.052-4.343-4.863-7.651-8.326z"/>
        <path fill="#FDD4BC" d="M111.358 176.489c2.621.683 6.19-3.71 7.973-5.991 2.592 1.52 8.598 7.087 10.913 10.917-1.216.336-3.984 2.68-5.098 3.774-1.392 1.367-1.38 5.146-1.38 5.146s-1.641-2.698-3.599-5.24c-1.957-2.543-16.66-8.428-16.66-8.428s5.262-.852 7.851-.178z"/>
        <path fill="#DBB8A4" d="M125.39 179.199c.795-1.362.973-1.46 1.827-1.701l1.177 1.282 1.952 2.638c-.805.425-1.931 1.004-3.402 2.636-1.905 2.113-4.502 5.099-4.744 5.218-.193.094-1.934-1.52-2.781-2.339.161-.257.951-1.101 2.83-2.427 2.348-1.657 2.148-3.604 3.141-5.307z"/>
        <path fill="#238BFE" d="M101.733 173.204c-1.042-1.587-6.894-7.062-13.241-6.694-3.448.2-6.019 1.652-7.598 5.354-2.256 5.287 4.312 10.46 9.552 12.779l12.464 5.317 4.898 3.076c.83.954 2.629 2.997 8.314 5.422 4.382 1.869 5.045-1.47 6.914-5.851 1.431-3.355 7.002-5.331 4.555-7.747l-1.229-1.149s-1.573.755-4.38.007c-2.159-.575-4.705-3.257-4.705-3.257s3.414-1.44 2.789-2.874c-1.421-3.263-8.062-6.871-9.099-4.441-1.232 2.888-4.031 2.903-4.031 2.903s-4.16-1.258-5.203-2.845z"/>
        <path fill="#fff" d="M90.827 178.292c1.582 2.103 3.419 3.348 7.754 5.826l14.452 6.927c5.136 2.264 9.003 5.306 6.69 8.764-2.32 3.528-4.789 1.952-8.755-.974-1.573-1.161-4.34-4.37-8.993-6.355l-14.996-5.167v-.001c-5.39-2.395-9.242-9.149-6.652-15.22 2.99-7.008 6.822 1.312 10.5 6.2z"/>
        <path fill="#1359A7" d="M209.056 107.574c-.524-2.524-3.525-5.468-5.391-5.678-4.147.42-4.147 5.678-2.903 12.619.482 2.69 1.244 9.044 3.732 7.572 2.489-1.473 5.391-10.517 4.562-14.513z"/>
        <path fill="#FFAB2E" d="M169.722 137.649c.974-.941 4.401.941 5.207 1.378l-5.61 5.778-4.938-1.882c1.456-1.444 4.562-4.521 5.341-5.274z"/>
        <path fill="#FDD4BC" d="M240.023 76.28c.48-1.762 4.684-3.931 5.646-4.572 6.696-4.7 6.872-4.085 15.28-1.377 5.856 1.885 6.504 11.095 5.703 16.434.748-.64 3.863-2.678 4.646.32.961 3.685-3.524 4.967-4.005 4.967-1.268 0-.575 4.163-1.862 6.095-1.923 2.883-3.968 3.516-11.273 4.797-9.13 1.602-15.209-3.684-16.018-6.247-.961-3.044 2.091-8.33.641-8.33-2.884 0-3.364-2.723-2.083-4.965 1.025-1.794 3.037-.484 4.158.583-.904-2.668-1.218-6.296-.833-7.705z"/>
        <path fill="#0C2C50" d="M276.453 75.84c5.036 15.011 12.946 14.29 27.042 16.212 8.971 1.922 5.447 18.581-13.936 25.789-12.633 4.699-34.551-8.792-28.944-16.321 6.567-1.602 4.816-7.955 6.359-9.468 5.926-1.442 4.645-6.247 2.883-6.568-1.602-.291-3.844 1.922-3.844 1.922s.639-1.683-.161-2.883c-.641-.961-4.325-.16-3.684-4.966.282-2.116-1.319-7.026-6.317-8.692-2.611-.87-5.206.625-6.248 2.083-.833-1.458-3.023-2.697-2.916-3.54 1.943-15.218 27.07-6.677 29.766 6.433z"/>
        <path fill="#FDD4BC" fill-rule="evenodd" d="M157.321 108.943c-3.386-.895-10.37-2.838-12.537-3.808-2.205-.986-12.146.514-16.842 1.387-.816.103-2.357.524-1.99 1.387.23.539 3.024.539 5.761.539 2.736 0 5.416 0 5.416.54 0 .63-.541 1.433-1.021 2.145-.34.506-.649.965-.713 1.285-.153.77.815 7.356 1.734 8.126.522.438 5.711-1.172 10.539-2.67 3.658-1.135 7.109-2.206 8.165-2.273 1.598-.1 1.851-.094 2.091-.088l.138.002v.001c2.707 0 17.097.911 22.303 1.327 3.363.269 12.382-.577 18.005-1.201.991-.071 2.246-.094 3.554-.117 2.54-.046 5.276-.096 6.651-.508.624-1.874 1.206-5.078 1.041-6.873-.146-1.589-1.112-2.846-1.458-3.124-1.527.209-10.222.548-11.721.548h-14.311c-3.423 0-11.338 1.279-17.489 2.273-3.224.52-5.964.963-7.316 1.102z" clip-rule="evenodd"/>
        <path fill="#FFAB2E" d="M225.287 157.094c3.957 2.083 10.156 24.357 20.985 31.438 8.4.694 25.91.497 31.031-2.499 8.039-4.704 2.895-21.308 2.895-21.308s-10.396 2.063-26.753-1.318c-4.233-.875-7.248-8.343-14.328-16.068-8.162-8.907-20.441-18.161-25.125-18.161-7.806 0-46.443 58.104-45.61 62.269.833 4.166 38.32 11.663 38.945 10.622.625-1.042 4.374-10.622 6.665-20.618 2.291-9.997 7.339-26.439 11.295-24.357z"/>
        <path fill="#238BFE" d="M284.801 129.83c-1.041-9.372-2.915-15.828-6.872-18.327-4.79-2.499-5.014-.858-8.539-1.25-3.749-.416-4.165-1.319-5.623-1.874-1.458.486-5.123 1.458-8.122 1.458-3.749 0-5.206-2.291-5.415-2.708-.208-.416-7.949-.914-9.973 0-4.176 1.887-19.281-2.87-27.02-4.374-7.739-1.505-10.914-1.458-9.664 0 1.249 1.458 1.874 3.749 2.291 8.747.333 3.999-.486 8.261-1.458 10.622l31.655-2.709 15.002 43.112c1.666.485 6.29 1.666 11.454 2.499 6.456 1.041 17.965.862 25.408-1.875 6.87-2.526 13.329 4.999 12.912-.624-.416-5.623-5.623-12.08-7.705-15.204-2.083-3.123-7.29-8.122-8.331-17.493z"/>
        <path fill="#F0F0F0" d="M201.704 121.889c-3.332 2.333-27.768 17.216-39.569 24.366l44.567 31.239c8.747 3.402 26.658 4.874 28.324-16.452 2.082-26.657-3.541-52.69-6.04-53.315-2.499-.624-23.117 11.246-27.282 14.162z"/>
        <path fill="#D7D7D7" d="M231.692 109.809c-1.499-1.832-2.429-2.152-2.707-2.082l-2.083 58.729c11.802 10.968 33.863 26.616 27.699 1.458-7.706-31.447-21.034-55.814-22.909-58.105z"/>
        <path fill="#FFAB2E" d="M223.976 157.231c3.957 2.082 11.48 24.012 22.31 31.093 8.4.694 26.366 1.166 31.031-2.499 5.831-4.582 4.984-17.494 3.734-21.035-.999-2.832-23.339 2.916-28.531-3.748-5.72-7.342-29.767-32.072-38.514-32.072-7.806 0-46.443 58.104-45.61 62.269.833 4.166 38.32 11.663 38.945 10.622.624-1.042 4.374-10.622 6.665-20.618 2.291-9.997 6.013-26.095 9.97-24.012z"/>
        <path fill="#EEE" d="M74.622 142.303c-2.5-5.831-4.582-7.497-3.332-11.871 11.87-11.87 129.12 18.952 139.533 20.826 10.413 1.875 32.072 8.747 39.361 12.288 2.708 1.457 2.916 4.998 2.916 5.623 0 .624-16.453 53.522-18.743 61.02-1.833 5.998-7.914 11.246-11.455 11.037l-95.799-15.827c-7.844-8.608-25.116-31.114-33.946-49.774-11.038-23.325-16.036-27.491-18.535-33.322z"/>
        <path fill="#D7D7D7" d="M247.104 178.952c.624-2.291 5.623-13.329 4.373-13.953 4.166 1.874 28.532 13.328 34.779 15.827 6.248 2.499 42.902 17.078 46.859 18.952 3.957 1.874 16.452 7.497 16.036 9.788-.417 2.291-16.036 14.245-26.033 26.241-2.499 2.999-10.135 13.398-15.202 21.451-28.185-4.582-84.387-13.912-83.721-14.579.833-.833.208-14.161 4.374-28.531 4.165-14.37 17.91-32.905 18.535-35.196z"/>
        <path fill="#3E9AFF" d="M278.551 125.012c1.25-3.124-.208-8.538-2.499-10.621-3.124-2.082-7.983 1.041-11.871 3.957-2.499 1.874-7.497 6.456-12.287 10.829-4.79 4.373-8.955 5.623-9.164 6.248-.208.625 8.331 23.95 12.496 22.7 4.165-1.249 12.704-17.285 14.786-20.826 2.083-3.54 7.289-9.163 8.539-12.287z"/>
        <path fill="#FFAB2E" d="M213.992 181.451c2.291-9.997 5.406-30.967 12.169-26.391l-12.169-25.882c-7.806 0-46.443 58.104-45.61 62.269.833 4.166 38.32 11.663 38.945 10.622.625-1.042 4.374-10.622 6.665-20.618z"/>
        <path fill="#0C2C50" d="M242.94 79.612c-3.205 1.855-1.789 6.662-1.789 6.662l-1.056-1.8s-1.659-2.703-3.599-.313c-1.364-3.167-4.224-6.756 1.451-13.175 6.335-7.166 10.616-6.032 11.866-4.703 1.666 1.041.208 4.373-.209 6.664-3.332-2.378-2.707 4.374-6.664 6.665z"/>
        <path fill="#9C681B" d="M183.319 190.234c-8.051-3.451-14.474-2.515-15.545 2.073-1.285 8.294 16.275 8.824 22.913 10.412 6.639 1.588 16.917 1.588 16.917-1.412s-7.255-3.293-11.752-5.411c-4.497-2.118-7.179-3.368-12.533-5.662z"/>
        <path fill="#1359A7" d="M248.563 138.758c-1.666-3.541-4.582-3.749-5.831-3.333-3.957 1.667-2.291 6.665-.625 10.622s6.248 9.371 6.456 9.788c.208.416 5.206 4.165 6.456 2.291 1.249-1.875-1.666-3.957-2.916-6.665-1.249-2.707-1.874-9.163-3.54-12.703z"/>
        <path fill="#FDD4BC" fill-rule="evenodd" d="M182.827 124.917c-.746 1.406-1.494 2.817-1.664 3.665-.031.155-.063.304-.094.447-.386 1.794-.606 2.815 3.635 4.55 2.985 1.221 6.097 1.74 7.899 2.04.411.069.754.126 1.012.178l.001-.001c1.379.705 9.419 6.785 14.592 10.697 1.949 1.474 3.491 2.64 4.117 3.095 2.291 1.666 9.162 4.582 11.037 4.582 1.874 0 15.204-4.165 17.912-5.414 1.521-.702 4.466-1.446 6.83-2.043 1.002-.253 1.9-.48 2.54-.666-.277-1.666-1.331-5.955-2.498-8.121-1.166-2.166-2.429-2.429-2.915-2.291-.514.206-1.362.559-2.408.994-3.194 1.329-8.23 3.425-11.216 4.42-2.862.954-4.238 1.225-5.125 1.4-.662.13-1.053.207-1.587.474l-4.371-1.874c-2.385-1.249-4.521-2.127-6.41-2.903-1.575-.648-2.979-1.224-4.211-1.887-5.512-2.205-11.389-6.772-12.982-8.102.303-2.784.638-6.774-.971-7.489-1.042-.463-1.434.064-1.842.612-.279.376-.566.761-1.074.846-.224.037-.715-.465-1.377-1.142-1.52-1.557-3.943-4.039-6.12-3.023-1.312.612-1.261 3.339-1.251 3.883l.001.074c-.303.819-.881 1.908-1.46 2.999z" clip-rule="evenodd"/>
        <path fill="#E7BFA9" d="M248.146 137.925c1.458 2.082 2.499 8.122 2.499 8.122s-1.249.416-3.749 1.041c1.25-1.874.982-5.726.409-6.744-1.402-2.495-3.116-3.252-4.782-3.252-1.057 0 0-.417 2.916-1.458 1.334-.228 1.249.208 2.707 2.291zM205.66 108.352c.57 2.224.209 7.078.209 7.078s-.627.089-2.708 0c1.458-.831 2.083-1.247 1.688-5.882-.419-2.577-2.729-4.112-2.937-4.112-.209 0 .198-.243 2.707-.417.23 0 .472 1.108 1.041 3.333z"/>
        <path fill="#222" d="M247.712 85.544c-.274.748-.875 1.216-1.344 1.044-.468-.171-.012-.997.261-1.744.274-.748.262-1.135.73-.964.468.172.626.917.353 1.664zM256.813 85.996c-.273.747-.875 1.215-1.343 1.043-.468-.17-.013-.996.261-1.744.273-.748.261-1.135.729-.963.469.17.627.916.353 1.664zM255.498 81.04c-.548.214-.986-.257-.681-.559.719-.486 2.143-.56 3.746-.154.862.217 1.808.738 2.544 1.758.486.673.511 1.099.04 1.359-.844.467-.305-.5-1.644-1.765-.862-.815-3.026-1.02-4.005-.638zM248.089 81.334c.426.246.831-.115.613-.412-.539-.503-1.694-.725-3.044-.55-.725.094-1.55.442-2.254 1.247-.465.532-.528.9-.17 1.178.643.5.3-.4 1.52-1.353.786-.613 2.574-.551 3.335-.11z"/>
        <path fill="#FDD4BC" d="M171.458 198.957c3.257-.488 5.154-7.105 6.06-10.508 3.625.464 13.001 3.825 17.418 7.005-1.2.956-3.177 4.899-3.901 6.654-.906 2.194.911 6.417.911 6.417s-3.123-2.236-6.527-4.146c-3.403-1.91-22.659-1.478-22.659-1.478s5.48-3.463 8.698-3.944z"/>
        <path fill="#238BFE" d="M242.349 133.006c-1.34-1.34-3.101-3.667-3.436-5.928-.333-2.244-1.311-5.519-2.173-8.193 2.506 1.109 7.576 3.386 7.811 3.621.234.234-1.143 7.978-.752 12.11-.157-.194-.378-.538-1.45-1.61z"/>
        <path fill="#D62929" d="M117.796 146.513c.621.121 1.089.496 1.404 1.124.315.627.64 1.862.975 3.702.772 4.345 1.058 10.973.857 19.886.006.104-.011.255-.05.453-.034.173-.197.347-.489.522-.262.154-.617.187-1.063.1-.422-.083-.763-.253-1.022-.509-.254-.282-.385-.667-.392-1.157-.002-.515-.001-1.506.003-2.971.021-3.263-.056-4.976-.23-5.138-.264-.232-1.22-.613-2.869-1.142-1.624-.524-2.71-.84-3.256-.947-.546-.107-.878-.12-.997-.041-.524.309-1.723 3.199-3.594 8.672-.192.451-.71.594-1.554.429-.844-.166-1.195-.608-1.054-1.326.349-1.784 1.675-5.061 3.976-9.832 2.302-4.771 4.047-7.888 5.236-9.353 1.505-1.892 2.878-2.716 4.119-2.472zm-.957 4.095c-.372-.073-1.234.903-2.585 2.928-1.345 1.999-2.069 3.259-2.171 3.78-.024.124-.017.215.023.274.16.237.908.564 2.244.98 1.336.417 2.227.669 2.674.756.447.088.7.112.759.072.065-.065.128-.258.191-.58.068-.347 0-1.775-.204-4.284-.199-2.535-.509-3.843-.931-3.926zM137.126 159.331l.058-.297.436-2.616c.49-2.502 1.356-3.631 2.597-3.388.571.112.885.547.943 1.304l-1.167 5.559 4.691.92c.695.265.99.67.883 1.215-.078.396-.302.751-.673 1.064-.366.289-.772.454-1.218.495l-4.281-.84c-.059.169-.128.451-.205.848l-.35 1.783-.051.26c-.534 2.725-1.397 3.971-2.588 3.737-.77-.151-1.07-.659-.9-1.526.496-2.527.905-4.415 1.227-5.664l-5.027-.985c-.819-.161-1.163-.575-1.032-1.244.078-.397.317-.761.718-1.094.425-.329.866-.474 1.322-.436l4.617.905z"/>
        <path fill="#0C2C50" d="M273.618 69.903c-5.068-5.973-10.237-5.715-17.563-6.743 3.899.844 7.462 3.196 11.536 5.484 9.775 5.49 13.174 14.683 22.366 17.725 6.472 2.141 13.795-.81 14.035-5.926.061-1.307-7.784 3.004-14.749 1.604-4.445-.893-9.289-4.677-15.625-12.144z"/>
        <path fill="#1C7FEC" d="M280.646 133.035c3.473-4.537 1.898-14.538 1.25-16.066 1.808 3.126 2.38 8.983 3.228 14.131.849 5.149 3.525 11.069 7.185 15.104 3.66 4.035 7.24 11.686 8.038 13.692.798 2.005 1.645 5.248.826 5.248-1.058 0-1.936.037-3.396-.551-1.167-.47-4.282-1.669-5.251-1.869 1.255-.241 3.381-1.909 2.01-6.724-1.713-6.019-9.399-7.732-13.334-10.279-3.936-2.546-4.028-8.149-.556-12.686z"/>
        <path fill="#F36B7F" d="M259.124 93.636c.64 2.26-1.82 4.823-8.548 4.823-4.107-.64-6.61-2.494-5.766-4.823.843-2.329 3.046-1.27 5.209-.487 2.162.784 7.182-2.877 9.105.487z"/>
        <path fill="#2084F3" d="M273.264 128.017c4.62-2.718 4.891-8.262 4.946-10.164.259.74.828 2.386.828 3.975 0 2.037-.381 4.834-5.774 11.293-5.394 6.459-8.558 14.372-11.14 17.6-3.315 4.148-3.872 5.893-7.377 7.712 0 0 .965-1.161 0-2.898-.29-.522-1.979-2.505-2.655-4.122 1.25-1.34 3.435-3.734 6.523-6.909 3.859-3.967 3.513-4.112 4.492-8.189.978-4.077 5.536-5.58 10.157-8.298z"/>
        <path fill="#7BB9FF" d="M204.962 230.469c-20.4 6.587-55.456 5.481-71.393 1.231-6.878-1.835-10.617-5.684-10.617-8.46 0-3.262-1.114-7.213-2.546-11.588-1.432-4.376-.717-.239-4.297 0-3.58.238-10.263-13.446-11.774-14.321-1.512-.875-6.428-6.945-12.404-6.945s-1.584 9.221-4.571 13.106c-2.988 3.884-8.375-7.309-14.052-2.528-5.677 4.781 7.75 7.102 11.933 10.688 4.184 3.585.035 4.616 3.024 9.758 3.208 5.521 14.089 19.484 17.804 11.207 4.743-10.567 5.297-23.892 8.152-16.235 5.083 13.638 10.098 37.377 42.446 47.95 24.497 8.007 52.094 9.639 56.584 0 2.303-4.943-14.445-13.889-2.449-16.715 11.997-2.825 24.19 21.546 46.002 21.546 21.811 0 51.376-4.808 81.876 13.468 18.504 11.088 16.36-4.66 2.701-9.388-11.762-4.071 23.007-11.24 41.472-8.037 18.393 3.19 48.622-32.371 29.443-19.697-17.638 11.655-79.59 14.954-103.09 8.279-20.683-5.874-14.007-11.805-8.035-17.556 5.972-5.751 28.429-9.501 14.617-15.876-13.813-6.375-20.938 25.626-53.876 30.088-32.938 4.463-33.784-5.075-32.509-14.212 1.275-9.138-4.041-12.351-24.441-5.763z"/>
        <path fill="#F9FCFF" d="M202.257 224.078c-20.4 6.587-55.456 5.48-71.394 1.23-6.878-1.834-7.673-9.254-7.673-12.03 0-3.262 2.227-6.824.795-11.2-1.432-4.376-7.001 2.944-10.581 3.182-3.58.239-10.263-13.445-11.775-14.32-1.511-.875-6.427-6.945-12.403-6.945-5.976 0-1.584 9.221-4.572 13.106-2.987 3.884-5.289-1.751-10.966 3.03s8.366 6.275 12.55 9.86c4.183 3.586 0 5.615 2.988 10.757 3.208 5.521 13.861 12.397 14.159 3.33.299-9.067 4.533-16.857 10.019-10.8 8.035 8.873 4.254 19.51 27.434 30.775 23.18 11.265 64.255 15.913 69.708 15.913 5.453 0-11.996-13.087 0-15.913 11.996-2.826 42.532 15.913 64.343 15.913 21.811 0 46.894 15.268 67.615 21.266 20.721 5.998 0-9.27-10.906-15.268-10.905-5.998 34.757-.169 51.676 7.719 17.606 8.208 26.408-2.198 16.872-16.383-11.795-17.545-70.671.348-91.956-2.693-21.284-3.041-19.275-12.651-13.302-18.402 5.972-5.751 34.444-9.577 20.631-15.952-13.812-6.375-23.375 19.337-56.312 23.8-32.938 4.462-28.263-5.1-26.988-14.238 1.275-9.137-9.563-12.325-29.962-5.737z"/>
        <path fill="#E7BFA9" d="M191.065 107.762c.817-.889 1.482.162 3.135-.323 1.652-.484 2.622 6.598 1.685 6.157-.741-.349-1.255-2.239-2.303-3.37-1.254-1.353-2.962-1.98-2.517-2.464zM225.065 143.074s.697-.374 2.249-.578c1.553-.204 2.128 2.674 1.682 2.589-.352-.068-2.555-1.449-3.034-1.709-.573-.312-.897-.302-.897-.302z"/>
        <path fill="#fff" d="M352.82 138.019c-6.741-20.962 1.896-31.075 8.428-38.449 14.115-14.037 8.754-10.998 36.264-19.377 78.358-23.867 108.045 35.555 91.933 57.827-16.984 23.477-44.306 12.89-56.627-.001-7.935-8.301 19.732-17.383 0-21.437-19.732-4.055-19.192-18.381-30.274-18.381-11.083 0 1.622 20.813-13.786 27.301-15.407 6.487-5.135 24.868-10.541 25.408-5.407.541-18.655 8.072-25.397-12.891z"/>
        <path fill="#238BFE" d="M161.158 202.484c-2.726 2.016-3.254 4.049-11.63 3.479-3.011-.205-7.094 1.15-9.801 6.213-3.297 6.164 10.271 9.157 17.235 8.914l16.462-.797 6.993.765c1.414.605 4.467 1.885 11.976 1.521 5.787-.28 4.685-.792 4.405-6.579-.954-3.88-5.325-10.794-4.847-13.249.319-1.635-2.272-2.203-4.62-1.748-.882.17-2.071 1.066-3.227 1.268-2.748.482-5.231-1.308-6.676-2.546-3.287-2.816-2.214-4.052-8.756-5.326-4.268-.831-2.061 4.466-2.061 4.466s-2.727 1.603-5.453 3.619z"/>
        <path fill="#fff" d="M153.935 213.909c2.848 1.461 5.518 1.848 11.577 2.26l19.492-.091c10.662-1.514 12.669 1.028 11.973 6.04-.666 5.092-4.204 4.677-10.098 3.58-2.338-.435-7.069-2.478-13.215-2.18l-19.152 2.305-.001-.002c-7.169.24-18.389-6.467-15.908-12.923 3.748-9.757 8.712-2.386 15.332 1.011z"/>
        <path fill="#BDDCFF" d="M152.728 216.233c2.798 1.183 5.429 1.481 11.403 1.773l19.229-.228c6.732-.259 12.49.748 11.764 4.888-.697 4.204-4.184 3.89-9.989 3.032-2.304-.341-6.954-1.989-13.019-1.695l-18.912 2.051v-.001c-7.075.254-14.728-4.093-15.048-10.704-.369-7.63 8.069-1.866 14.572.884z"/>
        <path stroke="#D0E6FF" stroke-linecap="round" stroke-width="3" d="M160.221 192.055c2.499 1.375 5.957 5.545 6.904 6.903-.756-.906-4.722-3.43-9.295-4.568m9.414 3.955c2.767-1.649 10.652-4.137 7.849-6.534-2.803-2.397-7.418 2.888-7.849 6.534zm-.17-1.306c.079-.193 1.372-6.996-1.793-8.056-2.533-.849-3.464 2.365 1.793 8.056z"/>
        <path fill="#E7BFA8" d="M146.154 112.613c-.175-1.041-1.589-.96-2.291-1.189-1.422-.796 1.039-.464 2.291-.464 1.422 0 3.423-1.392 4.322-.377.9 1.015 1.033 2.953.406 4.206-.626 1.253-4.876 2.946-5.132 2.321-.257-.626.598-3.353.404-4.497z"/>
    </g>
</svg>
